<svg width="536" height="515" viewBox="0 0 536 515" fill="none" xmlns="http://www.w3.org/2000/svg">
<path d="M156.155 311.189C150.232 311.189 144.551 313.45 140.363 317.474C136.174 321.498 133.821 326.956 133.821 332.647V370.886C105.035 339.608 89.1487 299.295 89.1547 257.543C89.145 251.232 89.5328 244.926 90.316 238.66C90.7421 235.829 90.575 232.945 89.8245 230.177C89.074 227.41 87.7552 224.814 85.9456 222.543C84.1361 220.272 81.8723 218.372 79.2874 216.954C76.7025 215.535 73.8486 214.628 70.8934 214.285C67.9383 213.941 64.9415 214.169 62.0792 214.955C59.217 215.74 56.5471 217.067 54.2264 218.858C51.9057 220.65 49.9811 222.868 48.5657 225.384C47.1503 227.9 46.2726 230.663 45.9843 233.51C44.9756 241.484 44.4759 249.51 44.488 257.543C44.5185 308.746 63.6726 358.239 98.4677 397.022H66.8213C60.8982 397.022 55.2176 399.283 51.0293 403.307C46.841 407.331 44.488 412.789 44.488 418.48C44.488 424.172 46.841 429.63 51.0293 433.654C55.2176 437.678 60.8982 439.939 66.8213 439.939H156.155C159.647 439.895 163.079 439.051 166.163 437.476C169.248 435.901 171.896 433.64 173.887 430.883C174.133 430.561 174.468 430.304 174.714 429.961C174.87 429.746 174.87 429.489 175.004 429.274C176.068 427.548 176.865 425.683 177.371 423.738C177.706 422.643 177.946 421.523 178.086 420.39C178.153 419.746 178.488 419.167 178.488 418.48V332.647C178.488 326.956 176.135 321.498 171.947 317.474C167.758 313.45 162.078 311.189 156.155 311.189V311.189ZM189.655 128.793H149.834C182.395 101.133 224.36 85.8693 267.821 85.8762C274.391 85.8624 280.955 86.2423 287.475 87.0135C293.359 87.6965 299.285 86.1053 303.949 82.5902C308.613 79.075 311.632 73.9238 312.343 68.2697C313.054 62.6156 311.398 56.9217 307.739 52.4408C304.081 47.9598 298.719 45.0588 292.835 44.3758C284.535 43.4167 276.181 42.9437 267.821 42.9596C214.53 42.9889 163.019 61.3926 122.655 94.8244V64.4179C122.655 58.7268 120.302 53.2688 116.113 49.2446C111.925 45.2204 106.245 42.9596 100.321 42.9596C94.3982 42.9596 88.7176 45.2204 84.5293 49.2446C80.341 53.2688 77.988 58.7268 77.988 64.4179V150.251C78.1258 151.671 78.4178 153.074 78.859 154.436C79.3974 157.083 80.467 159.605 82.008 161.86L82.276 162.225C83.7491 164.284 85.5948 166.072 87.7253 167.504C87.971 167.675 88.105 167.933 88.3507 168.105C88.6633 168.319 89.0207 168.384 89.3557 168.555C90.6271 169.288 91.9743 169.892 93.3757 170.358C95.2564 170.988 97.2172 171.37 99.2047 171.495C99.6067 171.495 99.9194 171.71 100.321 171.71H189.655C195.578 171.71 201.258 169.449 205.447 165.425C209.635 161.4 211.988 155.942 211.988 150.251C211.988 144.56 209.635 139.102 205.447 135.078C201.258 131.054 195.578 128.793 189.655 128.793ZM456.761 360.629C456.221 357.988 455.152 355.474 453.612 353.226L453.367 352.861C451.887 350.8 450.034 349.012 447.895 347.582C447.649 347.41 447.538 347.153 447.27 346.981C447.046 346.831 446.756 346.831 446.51 346.681C443.677 345.163 440.57 344.173 437.354 343.763C436.639 343.698 436.036 343.376 435.321 343.376H345.988C340.065 343.376 334.384 345.637 330.196 349.661C326.008 353.685 323.655 359.144 323.655 364.835C323.655 370.526 326.008 375.984 330.196 380.008C334.384 384.032 340.065 386.293 345.988 386.293H385.786C353.232 413.949 311.276 429.213 267.821 429.21C261.252 429.216 254.688 428.829 248.168 428.051C242.283 427.368 236.357 428.959 231.694 432.474C227.03 435.989 224.011 441.141 223.3 446.795C222.589 452.449 224.245 458.143 227.904 462.624C231.562 467.105 236.923 470.006 242.808 470.689C251.108 471.648 259.461 472.128 267.821 472.126C321.113 472.097 372.624 453.693 412.988 420.261V450.668C412.988 456.359 415.341 461.817 419.529 465.841C423.718 469.865 429.398 472.126 435.321 472.126C441.245 472.126 446.925 469.865 451.113 465.841C455.302 461.817 457.655 456.359 457.655 450.668V364.835C457.51 363.414 457.21 362.011 456.761 360.65V360.629ZM468.821 118.064C474.745 118.064 480.425 115.803 484.613 111.779C488.802 107.755 491.155 102.297 491.155 96.6054C491.155 90.9143 488.802 85.4563 484.613 81.4321C480.425 77.4079 474.745 75.1471 468.821 75.1471H379.488C378.033 75.2836 376.596 75.564 375.2 75.984L375.044 76.0054C372.336 76.5315 369.758 77.5513 367.45 79.0096L367.004 79.2885C364.869 80.7063 363.016 82.4795 361.532 84.5244C361.353 84.739 361.085 84.8677 360.907 85.1038C360.75 85.3183 360.75 85.5973 360.594 85.8333C359.002 88.5741 357.971 91.5824 357.557 94.6956C357.49 95.3394 357.155 95.9187 357.155 96.6054V182.439C357.155 188.13 359.508 193.588 363.696 197.612C367.884 201.636 373.565 203.897 379.488 203.897C385.411 203.897 391.092 201.636 395.28 197.612C399.468 193.588 401.821 188.13 401.821 182.439V144.179C430.607 175.465 446.493 215.784 446.488 257.543C446.49 263.855 446.095 270.161 445.304 276.426C444.598 282.073 446.252 287.759 449.902 292.237C453.553 296.714 458.903 299.617 464.779 300.309C465.683 300.411 466.593 300.461 467.504 300.46C472.956 300.45 478.216 298.525 482.293 295.047C486.37 291.568 488.982 286.777 489.636 281.576C490.652 273.602 491.159 265.576 491.155 257.543C491.124 206.339 471.97 156.847 437.175 118.064H468.821Z" fill="#343235"/>
</svg>
