<svg width="27" height="28" viewBox="0 0 27 28" fill="none" xmlns="http://www.w3.org/2000/svg">
<path d="M4.05612 7.50177H6.19095H23.2696" stroke="#F3F1F5" stroke-width="2" stroke-linecap="round" stroke-linejoin="round"/>
<path d="M9.39321 7.50173V5.26381C9.39321 4.67027 9.61813 4.10105 10.0185 3.68135C10.4188 3.26166 10.9619 3.02588 11.528 3.02588H15.7977C16.3639 3.02588 16.9069 3.26166 17.3073 3.68135C17.7076 4.10105 17.9325 4.67027 17.9325 5.26381V7.50173M21.1348 7.50173V23.1672C21.1348 23.7608 20.9099 24.33 20.5095 24.7497C20.1091 25.1694 19.5661 25.4051 19 25.4051H8.3258C7.7596 25.4051 7.2166 25.1694 6.81624 24.7497C6.41588 24.33 6.19096 23.7608 6.19096 23.1672V7.50173H21.1348Z" stroke="#F3F1F5" stroke-width="2" stroke-linecap="round" stroke-linejoin="round"/>
<path d="M11.528 13.0966V19.8103" stroke="#F3F1F5" stroke-width="2" stroke-linecap="round" stroke-linejoin="round"/>
<path d="M15.7977 13.0966V19.8103" stroke="#F3F1F5" stroke-width="2" stroke-linecap="round" stroke-linejoin="round"/>
</svg>
