<svg width="105" height="101" viewBox="0 0 105 101" fill="none" xmlns="http://www.w3.org/2000/svg">
<path d="M30.59 61.0293C29.4297 61.0293 28.3169 61.4726 27.4964 62.2619C26.6759 63.0511 26.215 64.1215 26.215 65.2376V72.7368C20.576 66.6028 17.4638 58.6968 17.465 50.5084C17.4631 49.2707 17.5391 48.034 17.6925 46.8051C17.776 46.25 17.7432 45.6844 17.5962 45.1416C17.4492 44.5988 17.1908 44.0898 16.8364 43.6444C16.4819 43.1991 16.0384 42.8263 15.532 42.5482C15.0257 42.2701 14.4666 42.0921 13.8877 42.0248C13.3088 41.9574 12.7217 42.0021 12.161 42.1562C11.6003 42.3102 11.0773 42.5705 10.6227 42.9218C10.1681 43.273 9.79107 43.7082 9.5138 44.2016C9.23653 44.6951 9.0646 45.2368 9.00813 45.7951C8.81052 47.359 8.71263 48.933 8.715 50.5084C8.72097 60.5503 12.4732 70.2566 19.2894 77.8626H13.09C11.9297 77.8626 10.8169 78.306 9.99641 79.0952C9.17594 79.8844 8.715 80.9548 8.715 82.0709C8.715 83.1871 9.17594 84.2575 9.99641 85.0467C10.8169 85.8359 11.9297 86.2793 13.09 86.2793H30.59C31.2742 86.2707 31.9464 86.1051 32.5506 85.7962C33.1548 85.4873 33.6736 85.0441 34.0637 84.5033C34.1119 84.4402 34.1775 84.3897 34.2256 84.3224C34.2562 84.2803 34.2562 84.2298 34.2825 84.1877C34.4909 83.8493 34.6471 83.4836 34.7462 83.102C34.8119 82.8873 34.8587 82.6677 34.8862 82.4455C34.8994 82.3192 34.965 82.2056 34.965 82.0709V65.2376C34.965 64.1215 34.5041 63.0511 33.6836 62.2619C32.8631 61.4726 31.7503 61.0293 30.59 61.0293ZM37.1525 25.2584H29.3519C35.7304 19.8339 43.951 16.8404 52.465 16.8418C53.7519 16.839 55.0377 16.9135 56.315 17.0648C57.4678 17.1987 58.6287 16.8867 59.5423 16.1973C60.4558 15.5079 61.0473 14.4977 61.1866 13.3888C61.3258 12.28 61.0014 11.1633 60.2847 10.2845C59.568 9.40572 58.5178 8.83678 57.365 8.70284C55.739 8.51474 54.1027 8.42198 52.465 8.42509C42.0255 8.43084 31.9347 12.0401 24.0275 18.5966V12.6334C24.0275 11.5173 23.5666 10.4469 22.7461 9.65769C21.9256 8.86847 20.8128 8.42509 19.6525 8.42509C18.4922 8.42509 17.3794 8.86847 16.5589 9.65769C15.7384 10.4469 15.2775 11.5173 15.2775 12.6334V29.4668C15.3045 29.7453 15.3617 30.0203 15.4481 30.2874C15.5536 30.8066 15.7631 31.3012 16.065 31.7435L16.1175 31.815C16.4061 32.2187 16.7676 32.5694 17.185 32.8503C17.2331 32.8839 17.2594 32.9344 17.3075 32.9681C17.3688 33.0102 17.4388 33.0228 17.5044 33.0565C17.7534 33.2002 18.0174 33.3187 18.2919 33.41C18.6603 33.5335 19.0444 33.6086 19.4338 33.633C19.5125 33.633 19.5738 33.6751 19.6525 33.6751H37.1525C38.3128 33.6751 39.4256 33.2317 40.2461 32.4425C41.0666 31.6533 41.5275 30.5829 41.5275 29.4668C41.5275 28.3506 41.0666 27.2802 40.2461 26.491C39.4256 25.7018 38.3128 25.2584 37.1525 25.2584ZM89.4775 70.7253C89.3717 70.2074 89.1622 69.7143 88.8606 69.2734L88.8125 69.2018C88.5226 68.7977 88.1595 68.4471 87.7406 68.1666C87.6925 68.1329 87.6706 68.0824 87.6181 68.0488C87.5744 68.0193 87.5175 68.0193 87.4694 67.9898C86.9142 67.6922 86.3057 67.498 85.6756 67.4175C85.5356 67.4049 85.4175 67.3418 85.2775 67.3418H67.7775C66.6172 67.3418 65.5044 67.7851 64.6839 68.5744C63.8634 69.3636 63.4025 70.434 63.4025 71.5501C63.4025 72.6662 63.8634 73.7366 64.6839 74.5258C65.5044 75.3151 66.6172 75.7584 67.7775 75.7584H75.5738C69.1966 81.1823 60.9775 84.1758 52.465 84.1751C51.178 84.1764 49.8922 84.1005 48.615 83.9478C47.4622 83.8139 46.3013 84.126 45.3877 84.8153C44.4742 85.5047 43.8827 86.515 43.7434 87.6238C43.6042 88.7327 43.9286 89.8493 44.6453 90.7281C45.362 91.6069 46.4122 92.1759 47.565 92.3098C49.191 92.4979 50.8273 92.5921 52.465 92.5918C62.9045 92.586 72.9953 88.9767 80.9025 82.4202V88.3834C80.9025 89.4996 81.3634 90.57 82.1839 91.3592C83.0044 92.1484 84.1172 92.5918 85.2775 92.5918C86.4378 92.5918 87.5506 92.1484 88.3711 91.3592C89.1916 90.57 89.6525 89.4996 89.6525 88.3834V71.5501C89.6241 71.2714 89.5655 70.9964 89.4775 70.7295V70.7253ZM91.84 23.1543C93.0003 23.1543 94.1131 22.7109 94.9336 21.9217C95.7541 21.1325 96.215 20.062 96.215 18.9459C96.215 17.8298 95.7541 16.7594 94.9336 15.9702C94.1131 15.181 93.0003 14.7376 91.84 14.7376H74.34C74.0549 14.7644 73.7734 14.8194 73.5 14.9017L73.4694 14.9059C72.939 15.0091 72.434 15.2091 71.9819 15.4951L71.8944 15.5498C71.4763 15.8278 71.1133 16.1756 70.8225 16.5766C70.7875 16.6187 70.735 16.644 70.7 16.6903C70.6694 16.7323 70.6694 16.7871 70.6388 16.8333C70.3269 17.3709 70.125 17.9608 70.0438 18.5714C70.0306 18.6976 69.965 18.8113 69.965 18.9459V35.7793C69.965 36.8954 70.4259 37.9658 71.2464 38.755C72.0669 39.5442 73.1797 39.9876 74.34 39.9876C75.5003 39.9876 76.6131 39.5442 77.4336 38.755C78.2541 37.9658 78.715 36.8954 78.715 35.7793V28.2758C84.354 34.4116 87.466 42.3189 87.465 50.5084C87.4655 51.7462 87.388 52.9829 87.2331 54.2118C87.0947 55.3193 87.4187 56.4343 88.1339 57.3124C88.8491 58.1905 89.8971 58.7599 91.0481 58.8956C91.2253 58.9156 91.4035 58.9254 91.5819 58.9251C92.6499 58.9233 93.6804 58.5457 94.4791 57.8635C95.2777 57.1813 95.7893 56.2417 95.9175 55.2218C96.1165 53.658 96.2159 52.0839 96.215 50.5084C96.209 40.4666 92.4568 30.7602 85.6406 23.1543H91.84Z" fill="#343235"/>
</svg>
