<svg width="84" height="84" viewBox="0 0 84 84" fill="none" xmlns="http://www.w3.org/2000/svg">
<circle cx="42" cy="42" r="42" fill="#D9D9D9"/>
<circle cx="42" cy="41" r="34" fill="#85FFDA"/>
<path d="M33 45.875C32.5226 45.875 32.0648 46.0594 31.7272 46.3876C31.3897 46.7158 31.2 47.1609 31.2 47.625V50.7435C28.88 48.1927 27.5995 44.9051 27.6 41.5C27.5992 40.9853 27.6305 40.471 27.6936 39.96C27.728 39.7292 27.7145 39.494 27.654 39.2683C27.5935 39.0426 27.4872 38.8309 27.3414 38.6457C27.1955 38.4605 27.0131 38.3055 26.8047 38.1898C26.5964 38.0742 26.3664 38.0002 26.1282 37.9722C25.89 37.9442 25.6485 37.9627 25.4178 38.0268C25.1871 38.0909 24.9719 38.1991 24.7849 38.3452C24.5979 38.4912 24.4427 38.6722 24.3287 38.8774C24.2146 39.0826 24.1439 39.3079 24.1206 39.54C24.0393 40.1903 23.999 40.8449 24 41.5C24.0025 45.6758 25.5462 49.7121 28.3506 52.875H25.8C25.3226 52.875 24.8648 53.0594 24.5272 53.3876C24.1897 53.7158 24 54.1609 24 54.625C24 55.0891 24.1897 55.5342 24.5272 55.8624C24.8648 56.1906 25.3226 56.375 25.8 56.375H33C33.2815 56.3715 33.5581 56.3026 33.8067 56.1741C34.0553 56.0457 34.2687 55.8614 34.4292 55.6365C34.449 55.6103 34.476 55.5893 34.4958 55.5613C34.5084 55.5438 34.5084 55.5228 34.5192 55.5053C34.6049 55.3645 34.6692 55.2124 34.71 55.0538C34.737 54.9645 34.7563 54.8732 34.7676 54.7808C34.773 54.7283 34.8 54.681 34.8 54.625V47.625C34.8 47.1609 34.6104 46.7158 34.2728 46.3876C33.9352 46.0594 33.4774 45.875 33 45.875ZM35.7 31H32.4906C35.1149 28.7443 38.4971 27.4995 42 27.5C42.5295 27.4989 43.0585 27.5299 43.584 27.5928C44.0583 27.6485 44.5359 27.5187 44.9118 27.232C45.2877 26.9454 45.531 26.5253 45.5883 26.0642C45.6456 25.603 45.5121 25.1387 45.2173 24.7733C44.9224 24.4078 44.4903 24.1712 44.016 24.1155C43.347 24.0373 42.6738 23.9987 42 24C37.7049 24.0024 33.5533 25.5033 30.3 28.2298V25.75C30.3 25.2859 30.1104 24.8408 29.7728 24.5126C29.4352 24.1844 28.9774 24 28.5 24C28.0226 24 27.5648 24.1844 27.2272 24.5126C26.8897 24.8408 26.7 25.2859 26.7 25.75V32.75C26.7111 32.8658 26.7347 32.9802 26.7702 33.0913C26.8136 33.3072 26.8998 33.5129 27.024 33.6968L27.0456 33.7265C27.1643 33.8944 27.3131 34.0402 27.4848 34.157C27.5046 34.171 27.5154 34.192 27.5352 34.206C27.5604 34.2235 27.5892 34.2288 27.6162 34.2428C27.7187 34.3026 27.8273 34.3518 27.9402 34.3898C28.0918 34.4412 28.2498 34.4724 28.41 34.4825C28.4424 34.4825 28.4676 34.5 28.5 34.5H35.7C36.1774 34.5 36.6352 34.3156 36.9728 33.9875C37.3104 33.6593 37.5 33.2142 37.5 32.75C37.5 32.2859 37.3104 31.8408 36.9728 31.5126C36.6352 31.1844 36.1774 31 35.7 31ZM57.228 49.907C57.1845 49.6917 57.0983 49.4866 56.9742 49.3033L56.9544 49.2735C56.8351 49.1055 56.6858 48.9596 56.5134 48.843C56.4936 48.829 56.4846 48.808 56.463 48.794C56.445 48.7818 56.4216 48.7818 56.4018 48.7695C56.1734 48.6457 55.923 48.565 55.6638 48.5315C55.6062 48.5263 55.5576 48.5 55.5 48.5H48.3C47.8226 48.5 47.3648 48.6844 47.0272 49.0126C46.6896 49.3408 46.5 49.7859 46.5 50.25C46.5 50.7141 46.6896 51.1593 47.0272 51.4874C47.3648 51.8156 47.8226 52 48.3 52H51.5076C48.8838 54.2555 45.5023 55.5003 42 55.5C41.4705 55.5006 40.9415 55.469 40.416 55.4055C39.9417 55.3498 39.4641 55.4796 39.0882 55.7662C38.7123 56.0529 38.469 56.473 38.4117 56.9341C38.3544 57.3952 38.4879 57.8596 38.7828 58.225C39.0776 58.5905 39.5097 58.8271 39.984 58.8827C40.653 58.961 41.3262 59.0001 42 59C46.2951 58.9976 50.4468 57.4967 53.7 54.7703V57.25C53.7 57.7141 53.8896 58.1592 54.2272 58.4874C54.5648 58.8156 55.0226 59 55.5 59C55.9774 59 56.4352 58.8156 56.7728 58.4874C57.1104 58.1592 57.3 57.7141 57.3 57.25V50.25C57.2883 50.1341 57.2642 50.0198 57.228 49.9088V49.907ZM58.2 30.125C58.6774 30.125 59.1352 29.9407 59.4728 29.6125C59.8104 29.2843 60 28.8392 60 28.375C60 27.9109 59.8104 27.4658 59.4728 27.1376C59.1352 26.8094 58.6774 26.625 58.2 26.625H51C50.8827 26.6362 50.7669 26.659 50.6544 26.6933L50.6418 26.695C50.4236 26.7379 50.2158 26.8211 50.0298 26.94L49.9938 26.9628C49.8218 27.0784 49.6724 27.223 49.5528 27.3898C49.5384 27.4073 49.5168 27.4178 49.5024 27.437C49.4898 27.4545 49.4898 27.4773 49.4772 27.4965C49.3489 27.72 49.2658 27.9654 49.2324 28.2193C49.227 28.2718 49.2 28.319 49.2 28.375V35.375C49.2 35.8391 49.3896 36.2843 49.7272 36.6125C50.0648 36.9406 50.5226 37.125 51 37.125C51.4774 37.125 51.9352 36.9406 52.2728 36.6125C52.6104 36.2843 52.8 35.8391 52.8 35.375V32.2548C55.12 34.8063 56.4004 38.0945 56.4 41.5C56.4002 42.0147 56.3683 42.529 56.3046 43.04C56.2477 43.5006 56.3809 43.9643 56.6752 44.3294C56.9694 44.6945 57.4006 44.9313 57.8742 44.9878C57.9471 44.9961 58.0204 45.0002 58.0938 45C58.5332 44.9993 58.9572 44.8422 59.2858 44.5586C59.6144 44.2749 59.8249 43.8842 59.8776 43.46C59.9595 42.8097 60.0004 42.1552 60 41.5C59.9975 37.3242 58.4538 33.2879 55.6494 30.125H58.2Z" fill="#343235"/>
</svg>
