<svg width="19" height="20" viewBox="0 0 19 20" fill="none" xmlns="http://www.w3.org/2000/svg">
<g clip-path="url(#clip0_354_371)">
<path d="M9.49217 12.4194C10.7868 12.4194 11.8364 11.3699 11.8364 10.0752C11.8364 8.7805 10.7868 7.73096 9.49217 7.73096C8.19749 7.73096 7.14795 8.7805 7.14795 10.0752C7.14795 11.3699 8.19749 12.4194 9.49217 12.4194Z" stroke="black" stroke-linecap="round" stroke-linejoin="round"/>
<path d="M15.2745 12.4192C15.1705 12.6549 15.1394 12.9163 15.1854 13.1698C15.2314 13.4233 15.3522 13.6572 15.5323 13.8413L15.5792 13.8882C15.7245 14.0334 15.8398 14.2057 15.9185 14.3955C15.9971 14.5852 16.0376 14.7885 16.0376 14.9939C16.0376 15.1993 15.9971 15.4027 15.9185 15.5924C15.8398 15.7821 15.7245 15.9545 15.5792 16.0996C15.4341 16.2449 15.2617 16.3602 15.072 16.4388C14.8823 16.5175 14.6789 16.558 14.4735 16.558C14.2682 16.558 14.0648 16.5175 13.8751 16.4388C13.6854 16.3602 13.513 16.2449 13.3679 16.0996L13.321 16.0527C13.1368 15.8726 12.9029 15.7517 12.6494 15.7058C12.3959 15.6598 12.1345 15.6908 11.8988 15.7949C11.6677 15.8939 11.4706 16.0584 11.3317 16.268C11.1929 16.4777 11.1184 16.7233 11.1174 16.9748V17.1076C11.1174 17.5221 10.9527 17.9196 10.6597 18.2127C10.3666 18.5058 9.96907 18.6704 9.55459 18.6704C9.14011 18.6704 8.7426 18.5058 8.44951 18.2127C8.15643 17.9196 7.99178 17.5221 7.99178 17.1076V17.0373C7.98573 16.7787 7.90201 16.5278 7.7515 16.3174C7.601 16.107 7.39067 15.9467 7.14786 15.8574C6.91217 15.7534 6.65073 15.7223 6.39725 15.7683C6.14376 15.8142 5.90986 15.9351 5.7257 16.1152L5.67881 16.1621C5.53367 16.3074 5.36131 16.4227 5.17159 16.5013C4.98187 16.58 4.7785 16.6205 4.57312 16.6205C4.36775 16.6205 4.16438 16.58 3.97466 16.5013C3.78494 16.4227 3.61258 16.3074 3.46743 16.1621C3.32213 16.017 3.20686 15.8446 3.12821 15.6549C3.04956 15.4652 3.00908 15.2618 3.00908 15.0564C3.00908 14.8511 3.04956 14.6477 3.12821 14.458C3.20686 14.2682 3.32213 14.0959 3.46743 13.9507L3.51432 13.9039C3.69446 13.7197 3.8153 13.4858 3.86127 13.2323C3.90723 12.9788 3.8762 12.7174 3.77218 12.4817C3.67313 12.2506 3.50866 12.0535 3.29901 11.9146C3.08937 11.7758 2.8437 11.7013 2.59226 11.7003H2.45942C2.04494 11.7003 1.64743 11.5356 1.35434 11.2426C1.06126 10.9495 0.896606 10.552 0.896606 10.1375C0.896606 9.72299 1.06126 9.32548 1.35434 9.0324C1.64743 8.73932 2.04494 8.57466 2.45942 8.57466H2.52975C2.78839 8.56861 3.03923 8.48489 3.24966 8.33439C3.46008 8.18388 3.62037 7.97355 3.70967 7.73074C3.81369 7.49506 3.84472 7.23362 3.79875 6.98013C3.75279 6.72665 3.63195 6.49275 3.45181 6.30858L3.40492 6.2617C3.25962 6.11656 3.14434 5.9442 3.0657 5.75447C2.98705 5.56475 2.94657 5.36139 2.94657 5.15601C2.94657 4.95063 2.98705 4.74727 3.0657 4.55755C3.14434 4.36782 3.25962 4.19546 3.40492 4.05032C3.55006 3.90501 3.72242 3.78974 3.91215 3.7111C4.10187 3.63245 4.30523 3.59197 4.51061 3.59197C4.71599 3.59197 4.91935 3.63245 5.10908 3.7111C5.2988 3.78974 5.47116 3.90501 5.6163 4.05032L5.66319 4.0972C5.84735 4.27735 6.08125 4.39819 6.33474 4.44415C6.58822 4.49011 6.84966 4.45908 7.08535 4.35507H7.14786C7.37897 4.25601 7.57608 4.09154 7.71492 3.8819C7.85376 3.67226 7.92826 3.42659 7.92926 3.17514V3.04231C7.92926 2.62782 8.09392 2.23031 8.387 1.93723C8.68009 1.64415 9.07759 1.47949 9.49208 1.47949C9.90656 1.47949 10.3041 1.64415 10.5972 1.93723C10.8902 2.23031 11.0549 2.62782 11.0549 3.04231V3.11263C11.0559 3.36408 11.1304 3.60974 11.2692 3.81939C11.4081 4.02903 11.6052 4.1935 11.8363 4.29256C12.072 4.39657 12.3334 4.4276 12.5869 4.38164C12.8404 4.33568 13.0743 4.21483 13.2585 4.03469L13.3053 3.98781C13.4505 3.8425 13.6228 3.72723 13.8126 3.64858C14.0023 3.56994 14.2057 3.52945 14.411 3.52945C14.6164 3.52945 14.8198 3.56994 15.0095 3.64858C15.1992 3.72723 15.3716 3.8425 15.5167 3.98781C15.662 4.13295 15.7773 4.30531 15.8559 4.49503C15.9346 4.68476 15.9751 4.88812 15.9751 5.0935C15.9751 5.29887 15.9346 5.50224 15.8559 5.69196C15.7773 5.88168 15.662 6.05404 15.5167 6.19919L15.4698 6.24607C15.2897 6.43023 15.1689 6.66414 15.1229 6.91762C15.0769 7.17111 15.108 7.43255 15.212 7.66823V7.73074C15.311 7.96186 15.4755 8.15897 15.6851 8.2978C15.8948 8.43664 16.1405 8.51115 16.3919 8.51215H16.5247C16.9392 8.51215 17.3367 8.6768 17.6298 8.96989C17.9229 9.26297 18.0875 9.66048 18.0875 10.075C18.0875 10.4894 17.9229 10.887 17.6298 11.18C17.3367 11.4731 16.9392 11.6378 16.5247 11.6378H16.4544C16.203 11.6388 15.9573 11.7133 15.7477 11.8521C15.538 11.991 15.3735 12.1881 15.2745 12.4192V12.4192Z" stroke="black" stroke-linecap="round" stroke-linejoin="round"/>
</g>
<defs>
<clipPath id="clip0_354_371">
<rect width="18.7538" height="18.7538" fill="white" transform="translate(0.115234 0.698242)"/>
</clipPath>
</defs>
</svg>
